<mxfile host="app.diagrams.net" modified="2023-02-20T10:07:07.908Z" agent="5.0 (Macintosh; Intel Mac OS X 10_15_7) AppleWebKit/537.36 (KHTML, like Gecko) Chrome/110.0.0.0 Safari/537.36" etag="C7Ph5_TqwzzW9N3-uMUd" version="20.8.20" type="github">
  <diagram name="第 1 页" id="MfYBzol-L6_5eNAO_k18">
    <mxGraphModel dx="2233" dy="672" grid="1" gridSize="10" guides="1" tooltips="1" connect="1" arrows="1" fold="1" page="1" pageScale="1" pageWidth="827" pageHeight="1169" math="0" shadow="0">
      <root>
        <mxCell id="0" />
        <mxCell id="1" parent="0" />
        <mxCell id="ddBu4VNajxaoY0yBKmz5-3" style="edgeStyle=orthogonalEdgeStyle;rounded=0;orthogonalLoop=1;jettySize=auto;html=1;entryX=0.47;entryY=0.227;entryDx=0;entryDy=0;entryPerimeter=0;" edge="1" parent="1" source="ddBu4VNajxaoY0yBKmz5-1" target="ddBu4VNajxaoY0yBKmz5-2">
          <mxGeometry relative="1" as="geometry">
            <Array as="points">
              <mxPoint x="180" y="178" />
              <mxPoint x="180" y="178" />
            </Array>
          </mxGeometry>
        </mxCell>
        <mxCell id="ddBu4VNajxaoY0yBKmz5-4" value="设置token：" style="edgeLabel;html=1;align=center;verticalAlign=middle;resizable=0;points=[];" vertex="1" connectable="0" parent="ddBu4VNajxaoY0yBKmz5-3">
          <mxGeometry x="-0.4832" y="1" relative="1" as="geometry">
            <mxPoint as="offset" />
          </mxGeometry>
        </mxCell>
        <mxCell id="ddBu4VNajxaoY0yBKmz5-1" value="用户" style="shape=umlActor;verticalLabelPosition=bottom;verticalAlign=top;html=1;outlineConnect=0;" vertex="1" parent="1">
          <mxGeometry x="60" y="160" width="30" height="60" as="geometry" />
        </mxCell>
        <mxCell id="ddBu4VNajxaoY0yBKmz5-2" value="User" style="shape=umlLifeline;perimeter=lifelinePerimeter;whiteSpace=wrap;html=1;container=0;dropTarget=0;collapsible=0;recursiveResize=0;outlineConnect=0;portConstraint=eastwest;newEdgeStyle={&quot;edgeStyle&quot;:&quot;elbowEdgeStyle&quot;,&quot;elbow&quot;:&quot;vertical&quot;,&quot;curved&quot;:0,&quot;rounded&quot;:0};" vertex="1" parent="1">
          <mxGeometry x="240" y="110" width="100" height="300" as="geometry" />
        </mxCell>
        <mxCell id="ddBu4VNajxaoY0yBKmz5-7" value="" style="html=1;points=[];perimeter=orthogonalPerimeter;outlineConnect=0;targetShapes=umlLifeline;portConstraint=eastwest;newEdgeStyle={&quot;edgeStyle&quot;:&quot;elbowEdgeStyle&quot;,&quot;elbow&quot;:&quot;vertical&quot;,&quot;curved&quot;:0,&quot;rounded&quot;:0};" vertex="1" parent="ddBu4VNajxaoY0yBKmz5-2">
          <mxGeometry x="45" y="60" width="10" height="100" as="geometry" />
        </mxCell>
        <mxCell id="ddBu4VNajxaoY0yBKmz5-18" value="" style="html=1;points=[];perimeter=orthogonalPerimeter;outlineConnect=0;targetShapes=umlLifeline;portConstraint=eastwest;newEdgeStyle={&quot;edgeStyle&quot;:&quot;elbowEdgeStyle&quot;,&quot;elbow&quot;:&quot;vertical&quot;,&quot;curved&quot;:0,&quot;rounded&quot;:0};" vertex="1" parent="ddBu4VNajxaoY0yBKmz5-2">
          <mxGeometry x="45" y="170" width="10" height="80" as="geometry" />
        </mxCell>
        <mxCell id="ddBu4VNajxaoY0yBKmz5-5" value="com.odbpo.app.user.common.utils.LoginTokenUtils&lt;br&gt;#tokenManage" style="text;html=1;align=center;verticalAlign=middle;resizable=0;points=[];autosize=1;strokeColor=none;fillColor=none;" vertex="1" parent="1">
          <mxGeometry x="-50" y="110" width="290" height="40" as="geometry" />
        </mxCell>
        <mxCell id="ddBu4VNajxaoY0yBKmz5-6" value="LoginTokenUtils" style="shape=umlLifeline;perimeter=lifelinePerimeter;whiteSpace=wrap;html=1;container=0;dropTarget=0;collapsible=0;recursiveResize=0;outlineConnect=0;portConstraint=eastwest;newEdgeStyle={&quot;edgeStyle&quot;:&quot;elbowEdgeStyle&quot;,&quot;elbow&quot;:&quot;vertical&quot;,&quot;curved&quot;:0,&quot;rounded&quot;:0};" vertex="1" parent="1">
          <mxGeometry x="560" y="110" width="100" height="300" as="geometry" />
        </mxCell>
        <mxCell id="ddBu4VNajxaoY0yBKmz5-8" value="" style="html=1;points=[];perimeter=orthogonalPerimeter;outlineConnect=0;targetShapes=umlLifeline;portConstraint=eastwest;newEdgeStyle={&quot;edgeStyle&quot;:&quot;elbowEdgeStyle&quot;,&quot;elbow&quot;:&quot;vertical&quot;,&quot;curved&quot;:0,&quot;rounded&quot;:0};" vertex="1" parent="ddBu4VNajxaoY0yBKmz5-6">
          <mxGeometry x="45" y="80" width="10" height="80" as="geometry" />
        </mxCell>
        <mxCell id="ddBu4VNajxaoY0yBKmz5-9" style="edgeStyle=elbowEdgeStyle;rounded=0;orthogonalLoop=1;jettySize=auto;html=1;elbow=horizontal;curved=0;" edge="1" parent="1" source="ddBu4VNajxaoY0yBKmz5-7" target="ddBu4VNajxaoY0yBKmz5-6">
          <mxGeometry relative="1" as="geometry">
            <Array as="points">
              <mxPoint x="370" y="190" />
            </Array>
          </mxGeometry>
        </mxCell>
        <mxCell id="ddBu4VNajxaoY0yBKmz5-13" value="生成token：Long.toHexString+UUID" style="edgeLabel;html=1;align=center;verticalAlign=middle;resizable=0;points=[];" vertex="1" connectable="0" parent="ddBu4VNajxaoY0yBKmz5-9">
          <mxGeometry x="-0.4467" y="-1" relative="1" as="geometry">
            <mxPoint x="58" y="-1" as="offset" />
          </mxGeometry>
        </mxCell>
        <mxCell id="ddBu4VNajxaoY0yBKmz5-12" style="edgeStyle=elbowEdgeStyle;rounded=0;orthogonalLoop=1;jettySize=auto;html=1;elbow=vertical;curved=0;entryX=0.2;entryY=0.644;entryDx=0;entryDy=0;entryPerimeter=0;" edge="1" parent="1" source="ddBu4VNajxaoY0yBKmz5-7" target="ddBu4VNajxaoY0yBKmz5-8">
          <mxGeometry relative="1" as="geometry" />
        </mxCell>
        <UserObject label="将token放入redis中，并设置过期时间（30天）" tooltip="stringCache.put(keyPre + token, JSONObject.toJSONString(userBizInfoEntity),&#xa;                MemberConstants.OAUTH_EXPIRED_TIME_MONTH);" id="ddBu4VNajxaoY0yBKmz5-14">
          <mxCell style="edgeLabel;html=1;align=center;verticalAlign=middle;resizable=0;points=[];" vertex="1" connectable="0" parent="ddBu4VNajxaoY0yBKmz5-12">
            <mxGeometry x="-0.5904" y="2" relative="1" as="geometry">
              <mxPoint x="81" y="1" as="offset" />
            </mxGeometry>
          </mxCell>
        </UserObject>
        <mxCell id="ddBu4VNajxaoY0yBKmz5-15" value="return" style="html=1;verticalAlign=bottom;endArrow=open;dashed=1;endSize=8;edgeStyle=elbowEdgeStyle;elbow=vertical;curved=0;rounded=0;" edge="1" parent="1" source="ddBu4VNajxaoY0yBKmz5-6">
          <mxGeometry relative="1" as="geometry">
            <mxPoint x="380" y="210" as="sourcePoint" />
            <mxPoint x="300" y="220" as="targetPoint" />
          </mxGeometry>
        </mxCell>
        <mxCell id="ddBu4VNajxaoY0yBKmz5-16" value="userTokenDeal" style="shape=umlLifeline;perimeter=lifelinePerimeter;whiteSpace=wrap;html=1;container=0;dropTarget=0;collapsible=0;recursiveResize=0;outlineConnect=0;portConstraint=eastwest;newEdgeStyle={&quot;edgeStyle&quot;:&quot;elbowEdgeStyle&quot;,&quot;elbow&quot;:&quot;vertical&quot;,&quot;curved&quot;:0,&quot;rounded&quot;:0};" vertex="1" parent="1">
          <mxGeometry x="780" y="110" width="100" height="300" as="geometry" />
        </mxCell>
        <mxCell id="ddBu4VNajxaoY0yBKmz5-17" value="" style="html=1;points=[];perimeter=orthogonalPerimeter;outlineConnect=0;targetShapes=umlLifeline;portConstraint=eastwest;newEdgeStyle={&quot;edgeStyle&quot;:&quot;elbowEdgeStyle&quot;,&quot;elbow&quot;:&quot;vertical&quot;,&quot;curved&quot;:0,&quot;rounded&quot;:0};" vertex="1" parent="ddBu4VNajxaoY0yBKmz5-16">
          <mxGeometry x="45" y="180" width="10" height="80" as="geometry" />
        </mxCell>
        <mxCell id="ddBu4VNajxaoY0yBKmz5-19" style="edgeStyle=elbowEdgeStyle;rounded=0;orthogonalLoop=1;jettySize=auto;html=1;elbow=vertical;curved=0;" edge="1" parent="1" source="ddBu4VNajxaoY0yBKmz5-18" target="ddBu4VNajxaoY0yBKmz5-16">
          <mxGeometry relative="1" as="geometry" />
        </mxCell>
        <mxCell id="ddBu4VNajxaoY0yBKmz5-20" value="入库：com.odbpo.app.user.common.utils.LoginTokenUtils#insertUserToken" style="edgeLabel;html=1;align=center;verticalAlign=middle;resizable=0;points=[];" vertex="1" connectable="0" parent="ddBu4VNajxaoY0yBKmz5-19">
          <mxGeometry x="-0.4874" relative="1" as="geometry">
            <mxPoint x="138" as="offset" />
          </mxGeometry>
        </mxCell>
      </root>
    </mxGraphModel>
  </diagram>
</mxfile>
